<?xml version="1.0" encoding="UTF-8"?><svg xmlns="http://www.w3.org/2000/svg" viewBox="0 0 89.88 9.3"><defs><style>.d{fill:#fff;}</style></defs><g id="a"/><g id="b"><g id="c"><g><path class="d" d="M0,4.18c0-.69,.13-1.3,.39-1.82s.64-.96,1.13-1.31S2.61,.44,3.32,.26s1.51-.26,2.4-.26,1.68,.09,2.39,.27,1.31,.45,1.8,.8,.87,.79,1.13,1.31,.39,1.12,.39,1.8v.96c0,.68-.13,1.27-.4,1.79s-.64,.96-1.13,1.31-1.09,.62-1.8,.8-1.5,.27-2.39,.27-1.69-.09-2.39-.26-1.3-.44-1.79-.79-.87-.79-1.13-1.31-.39-1.13-.39-1.81v-.96Zm5.71,2.75c.18,0,.37-.03,.59-.09s.42-.16,.62-.29,.36-.32,.49-.54,.2-.5,.2-.83v-1.03c0-.34-.07-.62-.2-.84s-.29-.41-.49-.54-.4-.23-.62-.29-.41-.08-.59-.08-.37,.03-.59,.09-.42,.16-.61,.29-.35,.32-.48,.54-.2,.51-.2,.84v1.03c0,.22,.04,.42,.1,.59s.14,.32,.24,.45,.21,.24,.35,.33,.27,.16,.4,.22,.28,.1,.41,.12,.26,.04,.38,.04Z"/><path class="d" d="M23.09,3.5c0,.27-.04,.51-.11,.72s-.18,.4-.32,.57-.3,.31-.5,.44-.4,.23-.63,.33c.14,.07,.27,.16,.38,.24s.21,.19,.29,.3,.16,.24,.22,.38,.12,.3,.18,.47l.15,.62c.09,.3,.2,.59,.32,.86s.25,.49,.39,.66h-3.99c-.04-.05-.09-.12-.14-.2s-.1-.18-.16-.28-.1-.22-.15-.35-.09-.26-.12-.4l-.19-.78c-.03-.13-.07-.24-.13-.33s-.12-.17-.21-.23-.19-.11-.31-.14-.26-.06-.42-.08h-1.27v2.78h-3.77V.22h6.33c.62,0,1.18,.06,1.69,.19s.95,.31,1.32,.56,.65,.56,.86,.93,.3,.8,.3,1.29v.32Zm-3.83-.36c0-.12-.02-.23-.06-.32s-.09-.16-.15-.21-.12-.09-.18-.11-.12-.04-.17-.04h-2.33v1.47h2.31c.05,0,.11-.01,.18-.03s.13-.06,.19-.11,.11-.12,.15-.22,.06-.21,.06-.34v-.09Z"/><path class="d" d="M24.65,.22h5.94c.92,0,1.7,.1,2.35,.29s1.18,.46,1.59,.8,.71,.75,.9,1.23,.28,1,.28,1.58v1.11c0,.57-.09,1.09-.28,1.57s-.48,.88-.89,1.22-.94,.61-1.59,.8-1.44,.29-2.38,.29h-5.94V.22Zm3.78,6.51h1.85c.34,0,.62-.04,.83-.13s.38-.21,.49-.37,.19-.34,.23-.55,.06-.45,.06-.7v-.74c0-.18-.01-.36-.04-.56s-.09-.37-.2-.53-.27-.29-.49-.4-.51-.16-.89-.16h-1.84V6.73Z"/><path class="d" d="M36.87,9.09V.22h8.96V2.59h-5.22v.87h4.56v2.37h-4.56v.9h5.26v2.36h-8.99Z"/><path class="d" d="M54.56,9.09l-3.84-4.42,.05,.4,.07,4.02h-3.6V.22h3.42l3.97,4.63-.05-.4-.07-4.24h3.6V9.09h-3.56Z"/><path class="d" d="M58.87,9.09L62.66,.22h4.82l3.8,8.87h-3.89l-.5-1.4h-3.63l-.5,1.4h-3.88Zm5.21-3.66h1.99l-.99-2.75-1,2.75Z"/></g><g><path d="M76.72,2.29c0,.28-.05,.53-.16,.74s-.25,.39-.44,.54c-.19,.14-.41,.25-.67,.32-.26,.07-.53,.11-.83,.11h-1.59v1.25h-2.06V.4h3.54c.32,0,.61,.04,.88,.11,.27,.07,.5,.18,.7,.31,.2,.14,.35,.3,.46,.5,.11,.2,.17,.42,.17,.67v.3Zm-2.1-.17c0-.09-.01-.16-.04-.21-.02-.06-.06-.1-.09-.13s-.08-.05-.12-.06c-.04-.01-.08-.02-.12-.02h-1.21v1.01h1.19s.06,0,.1-.02c.04-.02,.09-.04,.13-.08,.04-.04,.08-.08,.11-.14,.03-.06,.05-.13,.05-.21v-.14Z"/><path d="M83.05,2.2c0,.15-.02,.28-.06,.4-.04,.12-.1,.22-.18,.31-.08,.09-.17,.17-.27,.24-.1,.07-.22,.13-.35,.18,.08,.04,.15,.08,.21,.13,.06,.05,.11,.1,.16,.16,.05,.06,.09,.13,.12,.21s.07,.16,.1,.26l.08,.34c.05,.17,.11,.32,.17,.47,.07,.15,.14,.27,.21,.36h-2.18s-.05-.06-.08-.11-.06-.1-.08-.15-.06-.12-.08-.19c-.03-.07-.05-.14-.07-.22l-.1-.43c-.02-.07-.04-.13-.07-.18-.03-.05-.07-.09-.11-.12-.05-.03-.1-.06-.17-.08-.07-.02-.14-.03-.23-.04h-.7v1.52h-2.06V.4h3.46c.34,0,.65,.03,.93,.1,.28,.07,.52,.17,.72,.31,.2,.14,.36,.31,.47,.51,.11,.2,.17,.44,.17,.71v.17Zm-2.1-.2c0-.07-.01-.13-.03-.17s-.05-.08-.08-.11c-.03-.03-.07-.05-.1-.06s-.07-.02-.09-.02h-1.28v.8h1.27s.06,0,.1-.02c.04-.01,.07-.03,.1-.06,.03-.03,.06-.07,.08-.12,.02-.05,.03-.11,.03-.19v-.05Z"/><path d="M83.63,2.56c0-.38,.07-.71,.21-1,.14-.29,.35-.52,.62-.71,.27-.19,.6-.33,.98-.43,.39-.1,.82-.14,1.31-.14s.92,.05,1.31,.15c.39,.1,.71,.24,.98,.44s.48,.43,.62,.72,.21,.61,.21,.98v.52c0,.37-.07,.7-.22,.98s-.35,.52-.62,.71c-.27,.19-.6,.34-.98,.44-.39,.1-.82,.15-1.31,.15s-.92-.05-1.31-.14c-.39-.1-.71-.24-.98-.43-.27-.19-.47-.43-.62-.71-.14-.29-.21-.62-.21-.99v-.52Zm3.12,1.5c.1,0,.2-.02,.32-.05,.12-.03,.23-.08,.34-.16,.11-.07,.2-.17,.27-.3,.07-.12,.11-.28,.11-.46v-.56c0-.18-.04-.34-.11-.46-.07-.12-.16-.22-.27-.3-.11-.07-.22-.13-.34-.16-.12-.03-.23-.05-.32-.05s-.21,.02-.32,.05c-.12,.03-.23,.08-.34,.16-.1,.07-.19,.17-.26,.3-.07,.12-.11,.28-.11,.46v.56c0,.12,.02,.23,.05,.32,.03,.09,.08,.18,.13,.25,.05,.07,.12,.13,.19,.18,.07,.05,.14,.09,.22,.12,.08,.03,.15,.05,.23,.07,.07,.01,.14,.02,.21,.02Z"/></g></g></g></svg>