<?xml version="1.0" encoding="UTF-8"?>
<svg id="Capa_1" xmlns="http://www.w3.org/2000/svg" viewBox="0 0 1650.83 818.92">
  <defs>
    <style>
      .cls-1 {
        fill: #312783;
      }

      .cls-2 {
        fill: #e30613;
      }
    </style>
  </defs>
  <g>
    <path class="cls-1" d="M288.25,42.05s4.2,74.13-74.13,180.44c-78.33,106.3-180.44,209.81-156.66,325.91,23.78,116.1,117.49,177.64,170.65,190.23s95.11,0,95.11,0c0,0-163.51-46.09-177.64-201.42-12.73-139.88,113.95-222.75,149.67-339.9,34.97-114.7-6.99-155.26-6.99-155.26Z"/>
    <path class="cls-1" d="M400.14,741.28c4.3,1.59,6.67,3.32,6.67,5.12,0,8.11-47.65,14.68-106.43,14.68s-106.43-6.57-106.43-14.68c0-1.8,2.36-3.53,6.67-5.12-24.35,3.76-39.37,8.9-39.37,14.56,0,11.54,62.29,20.9,139.13,20.9s139.13-9.36,139.13-20.9c0-5.66-15.02-10.8-39.37-14.56Z"/>
    <path class="cls-2" d="M354.1,136.47s-22.47,98.86-62.91,171.88c-40.44,73.02-101.11,129.19-97.74,214.57,3.37,85.38,62.91,173.01,171.88,173.01s199.97-71.9,199.97-184.24c0-138.18-142.67-234.79-211.2-375.22ZM379.31,674.59c-108.96,0-140.92-77.52-140.92-77.52,0,0,37.33,58.63,133.47,58.63,87.63,0,141.77-70.99,141.77-147.38,0-92.12-80.89-214.57-80.89-214.57,0,0,106.72,124.7,106.72,211.2s-57.43,169.64-160.15,169.64Z"/>
  </g>
  <g>
    <path d="M899.08,264.24l-72.06,165.37h-30.24l-72.29-165.37h33.31l55.05,127.57,55.52-127.57h30.71Z"/>
    <g>
      <path d="M783.3,626.37h25.1v56.93c-14.89,12.04-35.71,18.16-55.91,18.16-44.28,0-76.92-30.81-76.92-73.45s32.65-73.45,77.33-73.45c23.87,0,43.87,7.96,57.33,23.26l-16.73,16.32c-11.22-11.22-24.08-16.32-39.38-16.32-30.4,0-51.82,20.61-51.82,50.19s21.42,50.19,51.62,50.19c10.2,0,20.2-2.04,29.38-7.34v-44.48Z"/>
      <path d="M936.73,666.36h-71.41l-14.08,33.05h-27.34l64.27-142.82h26.12l64.47,142.82h-27.75l-14.28-33.05ZM927.96,645.55l-26.93-62.43-26.73,62.43h53.66Z"/>
      <path d="M1091.18,699.42l-29.18-41.83c-1.84.2-3.67.2-5.51.2h-32.24v41.62h-26.52v-142.82h58.76c37.54,0,60.8,19.18,60.8,50.8,0,21.63-11.02,37.54-30.4,45.09l32.85,46.93h-28.57ZM1055.27,579.04h-31.01v56.93h31.01c23.26,0,35.3-10.61,35.3-28.57s-12.04-28.36-35.3-28.36Z"/>
      <path d="M1240.32,666.36h-71.41l-14.08,33.05h-27.34l64.27-142.82h26.12l64.48,142.82h-27.75l-14.28-33.05ZM1231.55,645.55l-26.93-62.43-26.73,62.43h53.66Z"/>
      <path d="M1396.81,626.37h25.1v56.93c-14.89,12.04-35.71,18.16-55.91,18.16-44.28,0-76.92-30.81-76.92-73.45s32.65-73.45,77.33-73.45c23.87,0,43.87,7.96,57.33,23.26l-16.73,16.32c-11.22-11.22-24.08-16.32-39.38-16.32-30.4,0-51.83,20.61-51.83,50.19s21.42,50.19,51.62,50.19c10.2,0,20.2-2.04,29.38-7.34v-44.48Z"/>
      <path d="M1564.73,677.18v22.24h-107.12v-142.82h104.26v22.24h-77.74v37.13h68.96v21.83h-68.96v39.38h80.59Z"/>
    </g>
    <path d="M1461.58,382.13c0,30.71-26.7,49.85-67.8,49.85s-67.33-19.14-67.33-49.85c0-18.19,9.45-31.66,26.46-39.45-13.23-7.32-20.55-19.14-20.55-34.73,0-28.35,24.81-46.07,61.42-46.07s61.9,17.72,61.9,46.07c0,15.59-7.56,27.4-21.03,34.73,17.25,7.8,26.93,21.26,26.93,39.45ZM1430.63,381.18c0-16.3-14.18-26.46-36.86-26.46s-36.38,10.16-36.38,26.46,13.7,26.7,36.38,26.7,36.86-9.92,36.86-26.7ZM1362.59,309.36c0,14.18,11.81,23.15,31.18,23.15s31.66-8.98,31.66-23.15c0-14.88-12.76-23.39-31.66-23.39s-31.18,8.5-31.18,23.39Z"/>
    <path d="M1614.02,311.41c-.47-4.45-1.21-8.84-1.91-13.25-.83-4.37-1.63-8.76-2.68-13.09-.93-4.36-2.18-8.65-3.33-12.97-1.34-4.27-2.56-8.57-4.12-12.79-2.9-8.49-6.45-16.81-10.37-25l-3.06-6.1c-1.02-2.03-2.2-4.01-3.29-6.01-2.16-4.02-4.68-7.89-7.11-11.79-5.11-7.67-10.54-15.22-16.74-22.24-2.97-3.6-6.29-6.94-9.54-10.33l-1.22-1.27-1.29-1.21-2.58-2.41-2.59-2.41c-.87-.8-1.72-1.61-2.64-2.35-14.32-12.32-30.55-22.61-47.77-30.28-17.25-7.6-35.36-12.6-53.4-15.42l-6.77-.98c-1.13-.15-2.26-.36-3.38-.45l-3.37-.3-6.75-.59-3.38-.28-3.35-.12-6.71-.22c-2.24-.06-4.44-.18-6.79-.1-4.62.11-9.26.09-13.86.52l-6.91.52-6.85.84c-4.59.49-9.07,1.37-13.58,2.16-2.27.36-4.47.89-6.69,1.39l-6.65,1.51-6.54,1.78c-2.17.62-4.38,1.15-6.49,1.88-17.16,5.31-33.44,12.23-48.8,20.09-15.39,7.86-29.85,16.72-43.62,26.07-13.77,9.35-26.86,19.21-39.46,29.31-25.18,20.22-48.44,41.36-70.84,62.31-14.95,14.06-29.55,28.23-44,42.3-.81-1.24-1.66-2.51-2.59-3.84-5.35-7.68-12.68-16.97-22.05-27.44-9.37-10.46-20.77-22.12-34.33-34.38-13.57-12.24-29.26-25.15-47.35-37.78.83-1.3,2.49-3.92,3.32-5.22,18.59,12.29,33.08,23.05,44.79,31.79,11.69,8.77,20.56,15.59,27.44,20.62,13.72,10.11,19.56,12.99,22.11,12.24,2.53-.72,1.63-4.97,1.43-8.47-.2-3.5.31-6.27,5.85-3.95-17-15.1-34.54-29.6-52.8-43.4-18.26-13.79-37.19-26.9-57.1-38.97-9.94-6.05-20.14-11.81-30.63-17.24-10.49-5.42-21.25-10.54-32.4-15.14-11.15-4.6-22.62-8.78-34.53-12.27-11.92-3.46-24.23-6.3-36.97-8.19-6.38-.62-14.53-1.18-23.46-1.15-2.15.05-4.34.09-6.57.14-1.12.03-2.24.05-3.37.08-1.13.03-2.27.04-3.43.14-2.31.16-4.64.31-6.99.47-1.17.08-2.35.16-3.52.25-1.17.07-2.37.25-3.55.37-4.74.57-9.47,1.01-14.12,1.87-2.32.39-4.62.78-6.88,1.16-2.26.45-4.49.96-6.66,1.43-2.17.5-4.3.9-6.35,1.47-2.05.56-4.05,1.11-5.96,1.64-.96.27-1.9.53-2.82.78-.46.13-.91.26-1.36.38-.45.15-.89.29-1.32.44-1.74.58-3.4,1.13-4.96,1.65-4.6,1.44-9.09,3.35-13.6,5.14-1.13.43-2.24.95-3.35,1.46l-3.33,1.54c-2.21,1.06-4.45,2-6.6,3.21l-6.49,3.48c-1.09.56-2.14,1.21-3.19,1.85l-3.15,1.93c-4.25,2.49-8.25,5.4-12.3,8.22-15.89,11.73-29.99,25.95-41.25,41.82-2.93,3.9-5.44,8.04-8.07,12.1-1.23,2.07-2.42,4.16-3.62,6.25-.59,1.05-1.2,2.08-1.78,3.14l-1.64,3.19c-4.5,8.47-8.11,17.23-11.39,26.03l-2.28,6.64-.57,1.66-.5,1.67-.99,3.34-.98,3.35-.49,1.67-.42,1.68-1.68,6.72c-.29,1.12-.54,2.24-.76,3.37l-.7,3.37-.69,3.37-.34,1.69-.28,1.69c-.75,4.5-1.54,9.01-2.04,13.51-1.22,9.01-1.78,17.99-2.16,26.95l-.11,6.7-.05,3.35.08,3.53.2,7.07c.12,2.36.34,4.71.52,7.07,1.47,18.84,5.73,37.48,12.2,55.22,13.11,35.47,35.73,67.04,64.58,90.67l2.69,2.24,2.78,2.12,5.57,4.22,5.75,3.97c.96.65,1.91,1.33,2.89,1.96l2.96,1.85c1.98,1.22,3.94,2.47,5.94,3.66l6.09,3.4c1.02.55,2.02,1.15,3.06,1.67l3.12,1.56c2.09,1.02,4.15,2.09,6.26,3.07,16.91,7.71,34.72,13.53,53.02,16.7,2.29.39,4.57.81,6.86,1.16l6.91.86,3.45.41,3.47.26,6.94.5c9.28.33,18.49.32,27.62-.44,18.28-1.38,36.24-4.9,53.31-10.16,17.07-5.28,33.28-12.15,48.63-19.99,15.35-7.85,29.85-16.67,43.65-26.06,27.59-18.83,52.52-39.79,76.19-61.27,23.66-21.52,46.04-43.66,68.05-65.63,22.01-21.97,43.63-43.8,65.57-64.71,21.93-20.89,44.18-40.91,67.31-58.71,11.56-8.89,23.34-17.21,35.35-24.69,1.49-.97,3-1.86,4.52-2.75l4.53-2.69c3.03-1.76,6.1-3.39,9.14-5.1,3.08-1.56,6.14-3.18,9.23-4.68l4.64-2.17,2.32-1.09c.77-.36,1.56-.66,2.34-1,12.45-5.39,25.07-9.58,37.75-12.31,1.58-.37,3.18-.59,4.76-.9,1.59-.27,3.17-.62,4.76-.84l4.77-.61,2.38-.32c.79-.08,1.59-.12,2.38-.19l4.77-.37,1.19-.1,1.19-.02,2.38-.05c1.59-.03,3.16-.1,4.78-.11l5,.15c13.34.36,26.33,2.01,38.61,5.19,12.28,3.16,23.84,7.84,34.43,13.99.69.35,1.32.77,1.96,1.19l1.93,1.24,1.94,1.23c.64.42,1.31.79,1.91,1.26l3.7,2.7,1.86,1.34,1.77,1.47,3.55,2.91c1.15,1.01,2.25,2.09,3.39,3.12,2.32,2.01,4.38,4.34,6.55,6.53.27.28.54.55.8.83l.76.89,1.52,1.77,1.53,1.76.77.88c.25.3.48.62.72.93,1.9,2.49,3.89,4.9,5.63,7.54,3.69,5.11,6.89,10.65,9.95,16.29,1.44,2.88,2.96,5.72,4.23,8.71,1.4,2.92,2.56,5.97,3.79,8.99.62,1.51,1.11,3.08,1.68,4.61.56,1.54,1.12,3.08,1.58,4.66l1.48,4.7,1.3,4.77c3.39,12.72,5.36,25.93,5.83,38.67-.24-8.2-1.15-16.62-2.63-24.94-1.5-8.32-3.53-16.59-6.17-24.59-5.28-16-12.66-31.05-22.06-44.15-4.73-6.52-9.93-12.57-15.56-18.09l-4.31-4.04-4.52-3.76-1.13-.95c-.38-.31-.79-.58-1.18-.87l-2.37-1.73-2.36-1.75c-.8-.57-1.64-1.06-2.46-1.6l-2.46-1.59c-.83-.52-1.61-1.11-2.49-1.56l-5.13-2.88c-.84-.51-1.73-.92-2.63-1.34l-2.66-1.28-2.66-1.3c-.9-.42-1.84-.75-2.75-1.13l-5.51-2.25-5.69-1.91c-.96-.31-1.88-.69-2.86-.94l-2.93-.78c-1.96-.51-3.89-1.1-5.87-1.56l-6.01-1.24c-1.01-.2-1.99-.45-3.01-.61l-3.08-.44-6.15-.91-6.27-.56-3.13-.29c-.52-.04-1.04-.11-1.57-.13l-1.59-.05-6.37-.21c-1.06-.03-2.14-.1-3.17-.1l-3.04.07-3.04.06c-1.01.01-2.03.02-3.04.12l-6.09.44c-1.02.04-2.03.23-3.04.34l-3.04.38-3.04.38-3.04.54-3.04.53c-1.01.18-2.03.33-3.04.59l-6.07,1.38c-1.01.2-2.02.52-3.03.79l-3.02.84-3.03.83-3.01.98c-2,.67-4.02,1.26-6.02,1.99-8.01,2.84-15.95,6.26-23.83,9.99-3.9,2.02-7.85,3.87-11.72,6.07-1.94,1.08-3.9,2.09-5.82,3.22l-5.77,3.39c-7.66,4.65-15.27,9.53-22.74,14.82-3.76,2.57-7.45,5.34-11.16,8.04-1.86,1.35-3.68,2.79-5.52,4.19-1.83,1.42-3.69,2.78-5.5,4.25-29.23,22.98-57.08,49.18-84.79,76.29-27.72,27.15-55.31,55.35-84.34,83.15-14.53,13.9-29.45,27.68-45,41.14-7.82,6.7-15.72,13.37-23.92,19.83-4.05,3.27-8.24,6.44-12.41,9.63-2.07,1.61-4.24,3.14-6.35,4.71-2.14,1.55-4.23,3.15-6.43,4.66l-6.53,4.58c-2.17,1.53-4.44,2.98-6.65,4.48-4.41,3.01-9.04,5.83-13.6,8.71-2.31,1.41-4.67,2.77-7,4.16l-3.51,2.07-3.59,1.99c-2.41,1.32-4.79,2.66-7.22,3.95l-7.39,3.76c-2.44,1.28-5,2.42-7.52,3.61-2.54,1.16-5.02,2.39-7.64,3.45l-7.77,3.28c-2.63,1.03-5.29,2.01-7.94,3.02-10.68,3.86-21.65,7.33-33.04,9.77,2.53-1.61,9.88-4.58-3.24-2.42,11.39-2.64,22.42-6.09,33.13-10.04,10.69-4,20.94-8.67,30.91-13.64,9.93-5.04,19.46-10.53,28.75-16.23l6.85-4.39c1.14-.74,2.29-1.45,3.41-2.21l3.35-2.27c2.22-1.52,4.48-3,6.67-4.55l6.54-4.66c34.64-25.08,65.31-53.03,94.73-81.15,29.39-28.17,57.46-56.71,85.83-84.14,28.35-27.39,56.98-53.83,87.18-76.81l5.67-4.28,5.72-4.15,2.86-2.07,2.89-2,5.78-3.99,5.84-3.82,2.92-1.91,2.95-1.82c1.97-1.21,3.92-2.45,5.9-3.63l5.95-3.45c7.97-4.47,16.01-8.74,24.19-12.33l3.06-1.39,3.08-1.26c2.06-.82,4.1-1.74,6.17-2.5l6.2-2.27c1.03-.4,2.07-.71,3.11-1.05l3.12-1,3.12-1,3.13-.85,3.13-.85c1.04-.28,2.08-.6,3.14-.81l6.29-1.4c1.04-.26,2.1-.4,3.15-.59l3.15-.55c8.41-1.36,16.83-2.26,25.25-2.22,1.06,0,2.09-.07,3.17-.04l3.29.12,6.58.22c1.1,0,2.17.16,3.25.24l3.24.29,3.24.28,1.62.14c.54.04,1.06.15,1.6.22,4.23.68,8.54,1.1,12.65,2.08,2.07.45,4.18.8,6.22,1.31l6.08,1.64c2.06.48,4,1.2,5.98,1.86l2.96.98,1.48.49c.49.17.96.39,1.44.58l5.75,2.32c.98.35,1.88.84,2.81,1.28l2.78,1.33c7.37,3.62,14.46,7.73,20.96,12.7,6.54,4.91,12.69,10.39,18.35,16.45,5.6,6.13,10.73,12.79,15.35,19.91,9.29,14.21,16.38,30.39,21.25,47.35,2.43,8.48,4.3,17.18,5.54,25.9l.46,3.27.34,3.27c.1,1.09.26,2.18.33,3.27l.23,3.25c.2,2.18.2,4.31.3,6.46.07,1.09.02,2.12.02,3.16l-.02,3.14c-1.53-.06-4.58-.19-6.14-.25-.35,5.63-.88,11.33-2.01,17.05l-.37,2.14c-.13.71-.32,1.43-.47,2.14l-.95,4.29-1.15,4.27-.57,2.14-.67,2.12-1.33,4.24-1.53,4.2-.76,2.1c-.27.7-.57,1.38-.85,2.07l-1.7,4.14c-2.47,5.44-5.03,10.87-8.07,16.03-11.82,20.84-28.29,38.85-47.41,51.26l-.89.6-.92.54-1.83,1.09-1.82,1.1c-.6.37-1.21.75-1.84,1.05-2.51,1.27-4.95,2.73-7.53,3.81l-3.82,1.75-3.9,1.52-1.94.77c-.66.23-1.32.43-1.98.65l-3.96,1.3c-10.64,3.19-21.71,4.72-32.97,4.79-.7,0-1.41.04-2.11.04l-2.08-.08-2.08-.06-2.11-.15c-1.4-.1-2.81-.18-4.23-.37-1.42-.17-2.84-.27-4.28-.51-5.73-.79-11.56-1.92-17.44-3.45-11.77-3.05-23.71-7.4-35.56-12.74-9.91-4.34-19.51-8.94-28.74-13.74-9.24-4.77-18.14-9.65-26.68-14.55-17.1-9.77-32.79-19.48-47.1-28.6,15.86,13.58,32.42,26.4,49.66,38.01,17.24,11.59,35.2,21.95,53.72,30.16,4.64,1.99,9.29,3.97,13.98,5.66,2.34.91,4.69,1.66,7.04,2.49l3.53,1.12c1.18.38,2.36.75,3.54,1.07,4.72,1.42,9.45,2.52,14.18,3.55,4.72.92,9.45,1.71,14.14,2.2,1.18.16,2.34.2,3.51.31,1.17.09,2.34.21,3.5.24l3.49.15,3.52-.03c2.35-.03,4.71.03,7.04-.21l3.51-.24,1.76-.12,1.74-.23c9.32-1.05,18.52-3.15,27.43-6.29,17.83-6.28,34.47-16.83,48.77-30.45,14.31-13.61,26.3-30.25,35.16-48.46,8.85-18.2,14.63-38.05,16.21-57.77.27-2.47.28-4.91.39-7.37.02-.61.06-1.22.06-1.84l-.02-1.88-.03-3.77c-.21-5.06-.5-10.16-1.15-15.27-1.2-10.22-3.24-20.43-6.07-30.41-5.67-19.95-14.52-38.95-26.49-55.34-11.94-16.41-27.08-30.07-44.57-39.9-2.2-1.21-4.35-2.51-6.66-3.53l-3.41-1.63c-1.13-.55-2.26-1.12-3.45-1.56l-7.03-2.85-7.24-2.42-1.81-.61-1.86-.49-3.71-.99-3.71-1-3.79-.77-3.79-.78c-1.27-.25-2.52-.56-3.82-.7l-7.72-1.12c-1.28-.22-2.59-.31-3.9-.42l-3.92-.34-3.92-.35c-.65-.07-1.31-.1-1.97-.11l-1.98-.06-7.92-.26c-2.61-.02-5.15.1-7.73.13-10.28.4-20.54,1.75-30.72,3.96-20.37,4.35-40.23,12.48-59.32,22.59-9.56,5.04-18.88,10.77-28.05,16.79-4.6,2.98-9.11,6.18-13.63,9.33-4.47,3.26-8.95,6.49-13.35,9.89-8.83,6.73-17.51,13.73-26.04,20.98-8.55,7.22-16.97,14.63-25.29,22.21-4.18,3.76-8.3,7.61-12.44,11.43-4.11,3.87-8.24,7.7-12.32,11.61-8.19,7.77-16.31,15.65-24.42,23.54,13.57-13.45,27.41-26.99,41.63-40.34,14.21-13.37,28.86-26.49,44.03-39.03,1.88-1.59,3.81-3.11,5.72-4.66,1.92-1.53,3.82-3.1,5.77-4.61,3.89-3,7.76-6.05,11.72-8.94,3.92-2.97,7.94-5.77,11.94-8.61,2-1.42,4.05-2.74,6.07-4.12,2.03-1.37,4.06-2.74,6.13-4.03,16.42-10.57,33.56-19.79,51.3-26.74l6.67-2.53,6.74-2.23c2.23-.8,4.52-1.34,6.77-2.01l3.39-.96c1.13-.32,2.28-.54,3.42-.82l3.42-.79c1.14-.25,2.27-.57,3.42-.75l6.87-1.25c1.14-.24,2.3-.33,3.44-.49l3.45-.45c1.15-.14,2.29-.33,3.45-.42l3.45-.26c4.6-.47,9.2-.45,13.79-.58,2.35.07,4.71.15,7.06.22,2.35.09,4.71.07,7.02.34,2.32.2,4.64.4,6.96.6l1.74.15c.58.05,1.14.16,1.72.23l3.42.5,3.42.5c1.14.18,2.29.29,3.4.55,2.24.46,4.47.93,6.71,1.39,2.25.4,4.42,1.06,6.6,1.64l3.27.88c1.09.29,2.19.56,3.24.96,2.12.72,4.24,1.44,6.36,2.16.53.18,1.06.35,1.58.54l1.54.64,3.08,1.27,3.08,1.26c1.04.39,1.99.95,2.99,1.41,1.98.97,3.95,1.93,5.92,2.89,1.9,1.08,3.8,2.16,5.7,3.24l1.42.8c.47.27.91.59,1.37.88l2.73,1.78,2.72,1.77c.91.58,1.74,1.28,2.62,1.91l2.6,1.93,1.3.96c.44.31.86.64,1.27,1,1.64,1.39,3.29,2.78,4.92,4.16.84.66,1.58,1.45,2.37,2.18l2.33,2.21c.76.75,1.57,1.44,2.3,2.23l2.19,2.34c1.45,1.57,2.96,3.07,4.28,4.74,1.35,1.65,2.75,3.24,4.07,4.91,1.27,1.7,2.55,3.4,3.81,5.1.47.59.9,1.22,1.32,1.85l1.28,1.88c.85,1.26,1.72,2.49,2.55,3.75l2.37,3.88c.79,1.29,1.62,2.56,2.32,3.91,1.44,2.67,3,5.27,4.28,8.03l2.02,4.07c.64,1.38,1.23,2.78,1.85,4.16,2.51,5.52,4.58,11.25,6.56,16.97l1.35,4.34c.43,1.45.93,2.88,1.29,4.35.77,2.93,1.61,5.83,2.23,8.79,1.43,5.87,2.4,11.81,3.29,17.72l.53,4.44.26,2.22.18,2.21c.11,1.47.26,2.95.36,4.42l.21,4.39c.1,1.47.06,2.91.09,4.36.01,1.45.06,2.91-.02,4.31l-.14,4.24c-.03,1.41-.22,2.84-.32,4.25-.4,5.67-1.35,11.35-2.38,16.99-4.64,22.54-13.91,44.3-26.75,63.14-6.4,9.43-13.65,18.18-21.63,25.99-8,7.78-16.75,14.6-26.03,20.27-18.56,11.37-39.34,17.92-60.6,19.02-2.66.06-5.33.12-7.99.18-2.65-.06-5.27-.09-7.94-.32-5.31-.36-10.65-1.01-16.01-2.01-5.36-.98-10.72-2.17-16.07-3.69-5.35-1.5-10.68-3.18-15.98-5.14-21.22-7.74-41.83-18.63-61.57-31.15-19.75-12.56-38.68-26.83-56.82-42.13-7.8-6.66-15.54-13.59-23.12-20.69-11.31-7.58-21.43-14.59-30.33-21.01-17.99-11.98-32.16-20.69-35.48-17.48-1.78,1.48-.83,6.07,4.21,14.5,5.05,8.41,14.14,20.69,29.09,37.01,8.11,7.46,20.55,18.35,31.22,27.07,10.65,8.74,19.46,15.38,19.46,15.38,5.11,7.68-.84,7.32-6.99,6.62,14.25,11.16,29,21.76,44.37,31.6,15.37,9.83,31.37,18.89,48.17,26.69,16.8,7.79,34.42,14.35,52.98,18.66,9.27,2.15,18.77,3.73,28.46,4.48l3.64.25,1.82.12,1.83.06c2.44.07,4.89.18,7.32.08l7.3-.16c2.43-.14,4.86-.37,7.3-.56,1.22-.11,2.43-.19,3.65-.32l3.63-.51,3.63-.52c1.21-.18,2.43-.32,3.62-.59l7.2-1.47c1.21-.22,2.38-.55,3.57-.87l3.55-.95,3.55-.95,3.49-1.14,3.49-1.16c1.16-.4,2.34-.74,3.47-1.22l6.83-2.71c1.15-.43,2.24-.98,3.36-1.48l3.33-1.54c17.73-8.33,33.81-19.76,47.85-33.09,6.98-6.71,13.49-13.87,19.49-21.43,5.92-7.61,11.35-15.58,16.26-23.86,4.9-8.29,9.16-16.94,12.94-25.8,3.8-8.86,6.91-18.03,9.42-27.4,3.09-11.74,5.16-23.82,6-36.11.06-.77.13-1.53.17-2.3l.07-2.32.14-4.63c.07-1.55,0-3.06,0-4.59-.03-1.52-.03-3.05-.08-4.57-.27-6.06-.68-12.09-1.42-18.05-2.89-23.84-9.3-47.06-19.26-68.96-9.96-21.86-23.69-42.36-41.14-59.59-8.73-8.6-18.41-16.27-28.72-22.91l-3.87-2.49c-1.3-.81-2.66-1.52-3.99-2.29l-4.01-2.25-2.01-1.12-2.06-1.01-8.26-3.99-8.46-3.48c-22.74-8.79-46.71-13.18-70.23-14.06l-4.42-.17c-1.48-.04-2.92-.16-4.44-.11l-9.04.12c-6.01.32-12.03.65-17.97,1.46l-4.47.53-4.43.73-4.42.75c-.74.13-1.48.24-2.21.38l-2.18.47c-2.91.64-5.83,1.25-8.72,1.92l-8.6,2.29c-11.37,3.26-22.42,7.27-33.13,11.82-10.69,4.59-20.97,9.79-30.98,15.3l-7.44,4.22c-2.45,1.44-4.86,2.92-7.29,4.39-2.45,1.45-4.82,2.97-7.19,4.49-2.36,1.53-4.79,3-7.09,4.59-9.39,6.19-18.43,12.71-27.34,19.32,9.05-6.83,18.26-13.52,27.79-19.89,9.56-6.34,19.34-12.44,29.49-18.11,10.18-5.63,20.67-10.85,31.51-15.52,10.86-4.64,22.13-8.6,33.68-11.82l4.35-1.17c1.45-.4,2.9-.78,4.38-1.09l8.83-1.94,8.94-1.53c1.48-.28,2.99-.45,4.5-.63l4.52-.54c1.51-.16,3-.39,4.52-.49l4.55-.31,4.55-.3c1.51-.13,3.04-.08,4.56-.12l4.56-.07c1.52-.01,3.05-.07,4.52.02l8.9.34c1.48.08,2.96.07,4.45.23l4.46.41c2.97.3,5.95.51,8.92.89,5.94.93,11.89,1.63,17.79,3.02l4.43.94,2.21.47,2.2.59,8.78,2.41c2.91.87,5.78,1.92,8.67,2.89,1.44.51,2.89.94,4.31,1.53l4.25,1.74c5.7,2.2,11.19,4.97,16.67,7.71l8.02,4.52,1,.57.97.62,1.94,1.25,3.87,2.51c10.2,6.84,19.7,14.71,28.28,23.41l3.16,3.31c1.03,1.12,2.14,2.18,3.11,3.36,1.98,2.31,3.97,4.62,5.92,6.95l5.54,7.21c1.77,2.45,3.45,4.96,5.18,7.44,6.67,10.06,12.38,20.65,17.2,31.55,9.61,21.84,15.71,44.86,18.36,68.43.19,1.47.32,2.95.44,4.43l.37,4.45c.19,2.97.32,5.96.43,8.95l.05,4.51.02,2.25-.07,2.28c-.13,3.04-.14,6.1-.45,9.11-.91,12.09-3.02,23.95-6.11,35.47-2.47,9.4-5.55,18.62-9.32,27.54-3.75,8.92-8,17.63-12.89,26-4.91,8.35-10.34,16.4-16.29,24.09-6,7.66-12.57,14.89-19.6,21.7l-5.37,5.01-5.62,4.76c-1.84,1.62-3.86,3.05-5.8,4.56l-2.94,2.24c-.99.73-2.02,1.41-3.03,2.11l-3.05,2.09c-1.02.69-2.02,1.41-3.09,2.04l-6.33,3.87c-2.13,1.26-4.34,2.38-6.52,3.58-1.1.57-2.17,1.21-3.29,1.73l-3.37,1.59c-4.45,2.22-9.11,3.98-13.72,5.84-4.72,1.59-9.41,3.29-14.25,4.5-2.4.66-4.8,1.35-7.25,1.81-2.44.51-4.88,1.04-7.32,1.52-4.93.72-9.84,1.59-14.81,1.91-4.95.55-9.92.58-14.88.72-2.49.02-4.98-.08-7.47-.13-2.47-.16-4.96-.27-7.43-.48-9.86-.85-19.54-2.48-28.99-4.69-18.9-4.45-36.87-11.16-53.97-19.14-17.11-7.99-33.42-17.23-49.1-27.25-15.68-10.03-30.73-20.85-45.29-32.21-3.07-.06-4.88.73-2.86,4.28,1.02,1.76,2.98,4.23,6.29,7.55,3.3,3.33,7.92,7.54,14.33,12.74,4.35,3.78,10.29,8.43,17.69,13.6,7.39,5.18,16.22,10.89,26.36,16.71,5.05,2.94,10.47,5.84,16.15,8.77,5.72,2.88,11.72,5.78,18.03,8.54,6.33,2.75,12.92,5.42,19.82,7.89,6.9,2.45,14.08,4.71,21.51,6.69,14.87,3.93,30.84,6.64,47.35,7.19l6.21.08c2.06-.02,4.11-.12,6.17-.19,2.05-.09,4.1-.12,6.15-.28,2.05-.2,4.09-.39,6.13-.59,8.17-.78,16.22-2.31,24.08-4.13,15.71-3.79,30.4-9.77,43.45-16.78,13.07-7.02,24.49-15.12,34.21-23.23l2.53-2.07c.85-.69,1.63-1.44,2.45-2.15l4.86-4.37c1.59-1.49,3.11-3.04,4.66-4.56l2.32-2.3c.78-.77,1.49-1.58,2.23-2.38l4.42-4.81c1.44-1.63,2.82-3.31,4.22-4.97l2.1-2.51c.7-.84,1.34-1.71,2.01-2.57l3.97-5.19c1.28-1.76,2.51-3.56,3.77-5.34l1.87-2.68c.61-.91,1.18-1.83,1.77-2.75l3.51-5.53,3.29-5.67,1.63-2.85,1.53-2.91c1.01-1.94,2.04-3.88,3.03-5.84,1.85-3.98,3.82-7.91,5.47-12,6.91-16.21,11.92-33.42,14.7-51.39,1.39-8.97,2.06-18.24,2.17-27.49.08-9.15-.54-18.09-1.57-26.97ZM987.83,401.35c-3.97,3.41-8.01,6.64-12.01,9.94l-6.06,4.81c-2.01,1.62-4.05,3.18-6.09,4.72-8.12,6.27-16.37,12.17-24.69,17.75-2.09,1.37-4.16,2.81-6.26,4.13l-6.3,3.96c-2.1,1.31-4.23,2.51-6.34,3.78-1.06.62-2.11,1.27-3.17,1.86l-3.2,1.76c-4.25,2.43-8.55,4.55-12.84,6.75l-6.48,3.03-1.62.76-1.63.69-3.26,1.38-3.25,1.39-3.27,1.24-3.27,1.25-1.63.62-1.64.54-6.57,2.19-6.59,1.88c-8.8,2.33-17.63,4.02-26.47,5l-6.63.58c-2.21.12-4.42.15-6.64.25-2.23.15-4.39,0-6.58,0-1.09-.03-2.19.01-3.28-.07l-3.27-.22c-8.72-.58-17.39-1.94-25.89-4.07-17-4.22-33.27-11.64-47.75-21.67-.62-.43-1.28-.82-1.88-1.27l-1.82-1.36-3.66-2.71-3.52-2.89-1.77-1.44-1.69-1.53-3.4-3.06-3.24-3.23-1.63-1.61-1.54-1.69-3.09-3.38-2.92-3.53-1.47-1.76c-.48-.6-.91-1.22-1.38-1.83l-2.75-3.67c-.88-1.25-1.7-2.54-2.57-3.8l-1.29-1.9c-.43-.63-.79-1.31-1.2-1.96l-2.37-3.93c-.77-1.32-1.45-2.7-2.18-4.04-.72-1.35-1.48-2.68-2.09-4.09l-1.96-4.15c-.66-1.38-1.17-2.83-1.78-4.24-1.25-2.8-2.17-5.73-3.21-8.61-.13-.36-.26-.72-.38-1.08l-.32-1.1-.65-2.21-.66-2.21c-.23-.73-.44-1.47-.6-2.22-.68-2.99-1.52-5.95-1.99-9-.27-1.51-.59-3.02-.83-4.54l-.6-4.59-.31-2.29-.17-2.31-.37-4.62c-.09-1.55-.08-3.1-.13-4.65l-.07-2.33c0-.39-.03-.76-.03-1.17l.02-1.26c.08-3.35.06-6.71.3-10.03l.27-4.99.45-4.95.22-2.47c.09-.82.21-1.63.31-2.45l.63-4.89c1.02-6.47,2.16-12.89,3.8-19.1,1.5-6.26,3.52-12.27,5.67-18.17,1.19-2.88,2.25-5.84,3.6-8.6.66-1.39,1.24-2.84,1.94-4.19l2.1-4.07c.66-1.39,1.47-2.66,2.22-3.97l1.14-1.96c.38-.65.74-1.32,1.17-1.93,1.66-2.49,3.22-5.06,5.03-7.4l1.31-1.8.65-.9.7-.85,2.79-3.42.69-.86.74-.8,1.48-1.61,1.47-1.62c.25-.27.48-.55.74-.81l.78-.76,3.11-3.05c.5-.53,1.05-1,1.6-1.47l1.64-1.42c2.11-1.97,4.46-3.66,6.72-5.45.29-.22.56-.45.85-.66l.9-.61,1.79-1.22,1.78-1.23.89-.62.93-.56c2.49-1.47,4.89-3.07,7.51-4.35,20.4-11.09,44.72-16.07,69.77-16.72,1.57-.04,3.14-.07,4.7-.11l1.17-.03,1.1.02,2.2.04c1.46,0,2.93.08,4.41.17,1.47.07,2.94.13,4.42.29,1.48.14,2.95.22,4.44.4,1.49.17,2.97.35,4.45.52,2.98.44,5.95.86,8.93,1.43,11.92,2.14,23.85,5.5,35.6,9.57,23.51,8.23,46.2,19.53,67.59,32.02,21.42,12.52,41.61,26.26,60.56,40.25,16.9,12.39,30.69,23.14,41.89,31.75,8.73,6.73,15.88,12.17,21.62,16.26-13.17,12.83-26.25,25.54-39.4,37.96-15.6,14.68-31.26,29.02-47.22,42.45Z"/>
  </g>
</svg>